<svg width="500" height="500" version="1.1" xmlns="http://www.w3.org/2000/svg" desc="Created with imagetracer.js version 1.2.6" ><path fill="rgb(251,246,231)" stroke="rgb(251,246,231)" stroke-width="1" opacity="1" d="M 25.5 125 L 25 126.5 L 24.5 128 L 24 126.5 L 25.5 125 Z " /><path fill="rgb(251,246,231)" stroke="rgb(251,246,231)" stroke-width="1" opacity="1" d="M 27.5 125 L 28.5 127 L 27.5 125 Z " /><path fill="rgb(251,246,231)" stroke="rgb(251,246,231)" stroke-width="1" opacity="1" d="M 31.5 132 L 32.5 134 L 31.5 132 Z " /><path fill="rgb(251,246,231)" stroke="rgb(251,246,231)" stroke-width="1" opacity="1" d="M 69.5 139 L 68.5 141 L 69.5 139 Z " /><path fill="rgb(251,246,231)" stroke="rgb(251,246,231)" stroke-width="1" opacity="1" d="M 32.5 141 L 33.5 143 L 32.5 141 Z " /><path fill="rgb(251,246,231)" stroke="rgb(251,246,231)" stroke-width="1" opacity="1" d="M 73.5 141 L 72.5 143 L 73.5 141 Z " /><path fill="rgb(251,246,231)" stroke="rgb(251,246,231)" stroke-width="1" opacity="1" d="M 64.5 142 L 63.5 144 L 64.5 142 Z " /><path fill="rgb(251,246,231)" stroke="rgb(251,246,231)" stroke-width="1" opacity="1" d="M 61.5 148 L 60.5 150 L 61.5 148 Z " /><path fill="rgb(251,246,231)" stroke="rgb(251,246,231)" stroke-width="1" opacity="1" d="M 46.5 150 L 49 150.5 L 46.5 151 L 46.5 150 Z " /><path fill="rgb(251,246,231)" stroke="rgb(251,246,231)" stroke-width="1" opacity="1" d="M 54.5 150 L 57 151.5 L 55.5 152 L 54.5 150 Z " /><path fill="rgb(251,246,231)" stroke="rgb(251,246,231)" stroke-width="1" opacity="1" d="M 30.5 151 L 32 153.5 L 31 153.5 L 30.5 151 Z " /><path fill="rgb(251,246,231)" stroke="rgb(251,246,231)" stroke-width="1" opacity="1" d="M 50.5 151 L 53.5 155 L 50.5 151 Z " /><path fill="rgb(251,246,231)" stroke="rgb(251,246,231)" stroke-width="1" opacity="1" d="M 39.5 152 L 37.5 155 L 39.5 152 Z " /><path fill="rgb(251,246,231)" stroke="rgb(251,246,231)" stroke-width="1" opacity="1" d="M 43.5 154 Q 49.3 153.2 51 156.5 L 75.5 199 L 78 197.5 L 66 175.5 L 69.5 170 L 74.5 169 L 78 171.5 L 89.5 191 L 92 189.5 L 83 171.5 L 87.5 166 Q 93.3 165.2 95 168.5 L 103.5 183 L 106 181.5 L 100 171.5 L 100 167.5 L 102.5 164 L 107.5 163 L 113 167.5 L 131 199.5 L 133 218.5 L 100.5 238 L 94.5 240 L 45.5 219 L 43 216.5 Q 41.5 209.5 45.5 208 L 50.5 207 L 66 211 L 66 207.5 L 42 167.5 L 39 159.5 L 41 155 L 43.5 154 Z " /><path fill="rgb(251,246,231)" stroke="rgb(251,246,231)" stroke-width="1" opacity="1" d="M 104.5 159 L 108 159.5 L 104.5 160 L 104.5 159 Z " /><path fill="rgb(251,246,231)" stroke="rgb(251,246,231)" stroke-width="1" opacity="1" d="M 112.5 161 L 113.5 163 L 112.5 161 Z " /><path fill="rgb(251,246,231)" stroke="rgb(251,246,231)" stroke-width="1" opacity="1" d="M 88.5 162 L 91 162.5 L 88.5 163 L 88.5 162 Z " /><path fill="rgb(251,246,231)" stroke="rgb(251,246,231)" stroke-width="1" opacity="1" d="M 98.5 163 L 96.5 166 L 95.5 164 Q 97 166.5 98.5 163 Z " /><path fill="rgb(251,246,231)" stroke="rgb(251,246,231)" stroke-width="1" opacity="1" d="M 83.5 164 L 81.5 167 L 83.5 164 Z " /><path fill="rgb(251,246,231)" stroke="rgb(251,246,231)" stroke-width="1" opacity="1" d="M 24.5 165 L 23.5 167 L 24.5 165 Z " /><path fill="rgb(251,246,231)" stroke="rgb(251,246,231)" stroke-width="1" opacity="1" d="M 71.5 165 L 74 165.5 L 71.5 166 L 71.5 165 Z " /><path fill="rgb(251,246,231)" stroke="rgb(251,246,231)" stroke-width="1" opacity="1" d="M 77.5 166 L 81 168.5 L 79.5 169 L 77.5 166 Z " /><path fill="rgb(251,246,231)" stroke="rgb(251,246,231)" stroke-width="1" opacity="1" d="M 28.5 167 L 27.5 169 L 28.5 167 Z " /><path fill="rgb(251,246,231)" stroke="rgb(251,246,231)" stroke-width="1" opacity="1" d="M 66.5 167 L 65.5 169 L 66.5 167 Z " /><path fill="rgb(251,246,231)" stroke="rgb(251,246,231)" stroke-width="1" opacity="1" d="M 61.5 168 L 62.5 170 L 61.5 168 Z " /><path fill="rgb(251,246,231)" stroke="rgb(251,246,231)" stroke-width="1" opacity="1" d="M 40.5 171 L 41.5 173 L 40.5 171 Z " /><path fill="rgb(251,246,231)" stroke="rgb(251,246,231)" stroke-width="1" opacity="1" d="M 16.5 174 L 15.5 176 L 16.5 174 Z " /><path fill="rgb(251,246,231)" stroke="rgb(251,246,231)" stroke-width="1" opacity="1" d="M 120.5 174 L 121.5 176 L 120.5 174 Z " /><path fill="rgb(251,246,231)" stroke="rgb(251,246,231)" stroke-width="1" opacity="1" d="M 124.5 181 L 125.5 183 L 124.5 181 Z " /><path fill="rgb(251,246,231)" stroke="rgb(251,246,231)" stroke-width="1" opacity="1" d="M 128.5 188 L 129.5 190 L 128.5 188 Z " /><path fill="rgb(251,246,231)" stroke="rgb(251,246,231)" stroke-width="1" opacity="1" d="M 132.5 195 L 133.5 197 L 132.5 195 Z " /><path fill="rgb(251,246,231)" stroke="rgb(251,246,231)" stroke-width="1" opacity="1" d="M 55.5 197 L 56.5 199 L 55.5 197 Z " /><path fill="rgb(251,246,231)" stroke="rgb(251,246,231)" stroke-width="1" opacity="1" d="M 134.5 199 L 135 202.5 L 134 202.5 L 134.5 199 Z " /><path fill="rgb(251,246,231)" stroke="rgb(251,246,231)" stroke-width="1" opacity="1" d="M 48.5 203 L 51 203.5 L 48.5 204 L 48.5 203 Z " /><path fill="rgb(251,246,231)" stroke="rgb(251,246,231)" stroke-width="1" opacity="1" d="M 135.5 208 L 136 210.5 L 135 210.5 L 135.5 208 Z " /><path fill="rgb(251,246,231)" stroke="rgb(251,246,231)" stroke-width="1" opacity="1" d="M 136.5 216 L 137 218.5 L 136 218.5 L 136.5 216 Z " /><path fill="rgb(251,246,231)" stroke="rgb(251,246,231)" stroke-width="1" opacity="1" d="M 212.5 216 L 213 246.5 L 212 246.5 L 212 238.5 L 211 237.5 L 211.5 236 L 203 235.5 L 212 235 L 212 228 L 203.5 228 L 203.5 227 L 212 226.5 L 212 224.5 L 212.5 216 Z " /><path fill="rgb(251,246,231)" stroke="rgb(251,246,231)" stroke-width="1" opacity="1" d="M 270.5 216 L 271 222.5 L 270 222.5 L 270.5 216 Z " /><path fill="rgb(251,246,231)" stroke="rgb(251,246,231)" stroke-width="1" opacity="1" d="M 357.5 216 L 358 246.5 L 357 246.5 L 357.5 216 Z " /><path fill="rgb(251,246,231)" stroke="rgb(251,246,231)" stroke-width="1" opacity="1" d="M 420.5 217 L 421 221.5 L 420 221.5 L 420.5 217 Z " /><path fill="rgb(251,246,231)" stroke="rgb(251,246,231)" stroke-width="1" opacity="1" d="M 188.5 218 L 187.5 220 L 188.5 218 Z " /><path fill="rgb(251,246,231)" stroke="rgb(251,246,231)" stroke-width="1" opacity="1" d="M 214.5 218 L 215 244.5 L 214 244.5 L 214.5 218 Z " /><path fill="rgb(251,246,231)" stroke="rgb(251,246,231)" stroke-width="1" opacity="1" d="M 224.5 218 L 227 218.5 L 224.5 219 L 224.5 218 Z " /><path fill="rgb(251,246,231)" stroke="rgb(251,246,231)" stroke-width="1" opacity="1" d="M 272.5 218 L 273 221 L 279.5 221 L 280 221.5 L 280 244.5 L 279 244.5 L 279 222.5 Q 278.9 221.4 273.5 222 Q 271 221 272.5 218 Z " /><path fill="rgb(251,246,231)" stroke="rgb(251,246,231)" stroke-width="1" opacity="1" d="M 330.5 218 L 331 244.5 L 330 244.5 L 330.5 218 Z " /><path fill="rgb(251,246,231)" stroke="rgb(251,246,231)" stroke-width="1" opacity="1" d="M 359.5 218 L 360 244.5 L 359 244.5 L 359.5 218 Z " /><path fill="rgb(251,246,231)" stroke="rgb(251,246,231)" stroke-width="1" opacity="1" d="M 369.5 218 L 372 218.5 L 369.5 219 L 369.5 218 Z " /><path fill="rgb(251,246,231)" stroke="rgb(251,246,231)" stroke-width="1" opacity="1" d="M 396.5 218 L 397 220.5 L 395.5 222 L 386.5 222 L 386.5 221 L 395.5 221 L 396.5 218 Z " /><path fill="rgb(251,246,231)" stroke="rgb(251,246,231)" stroke-width="1" opacity="1" d="M 418.5 218 L 419 220.5 Q 417.5 223.5 411.5 222 L 411.5 221 L 418 221 L 418.5 218 Z " /><path fill="rgb(251,246,231)" stroke="rgb(251,246,231)" stroke-width="1" opacity="1" d="M 438.5 218 L 440.5 221 L 438.5 218 Z " /><path fill="rgb(251,246,231)" stroke="rgb(251,246,231)" stroke-width="1" opacity="1" d="M 190.5 219 L 189.5 221 L 190.5 219 Z " /><path fill="rgb(251,246,231)" stroke="rgb(251,246,231)" stroke-width="1" opacity="1" d="M 207.5 219 L 208.5 221 L 207.5 219 Z " /><path fill="rgb(251,246,231)" stroke="rgb(251,246,231)" stroke-width="1" opacity="1" d="M 436.5 219 L 438.5 222 L 436.5 219 Z " /><path fill="rgb(251,246,231)" stroke="rgb(251,246,231)" stroke-width="1" opacity="1" d="M 205.5 220 L 208.5 224 L 205.5 220 Z " /><path fill="rgb(251,246,231)" stroke="rgb(251,246,231)" stroke-width="1" opacity="1" d="M 230.5 220 L 231.5 222 L 230.5 220 Z " /><path fill="rgb(251,246,231)" stroke="rgb(251,246,231)" stroke-width="1" opacity="1" d="M 328.5 220 L 329 245.5 L 328 245.5 L 328 223.5 L 327 222.5 L 328.5 220 Z " /><path fill="rgb(251,246,231)" stroke="rgb(251,246,231)" stroke-width="1" opacity="1" d="M 375.5 220 L 376.5 222 L 375.5 220 Z " /><path fill="rgb(251,246,231)" stroke="rgb(251,246,231)" stroke-width="1" opacity="1" d="M 194.5 221 L 200 221.5 L 194.5 222 L 194.5 221 Z " /><path fill="rgb(251,246,231)" stroke="rgb(251,246,231)" stroke-width="1" opacity="1" d="M 218 221 L 226 221.5 L 219 222 L 218.5 231 L 218 221 Z " /><path fill="rgb(251,246,231)" stroke="rgb(251,246,231)" stroke-width="1" opacity="1" d="M 284.5 221 L 291 221.5 L 284 222 L 283.5 245 L 283 222.5 L 284.5 221 Z " /><path fill="rgb(251,246,231)" stroke="rgb(251,246,231)" stroke-width="1" opacity="1" d="M 334 221 L 345 221.5 L 335 222 L 334.5 230 L 334 221 Z " /><path fill="rgb(251,246,231)" stroke="rgb(251,246,231)" stroke-width="1" opacity="1" d="M 363 221 L 371 221.5 L 364 222 L 364 230 L 370.5 230 L 370.5 231 L 363 231 L 363 221 Z " /><path fill="rgb(251,246,231)" stroke="rgb(251,246,231)" stroke-width="1" opacity="1" d="M 400.5 221 L 407 221.5 L 400.5 222 L 400.5 221 Z " /><path fill="rgb(251,246,231)" stroke="rgb(251,246,231)" stroke-width="1" opacity="1" d="M 169.5 223 L 169 224.5 L 168.5 226 L 168 224.5 L 169.5 223 Z " /><path fill="rgb(251,246,231)" stroke="rgb(251,246,231)" stroke-width="1" opacity="1" d="M 220.5 223 L 221 228.5 L 220 228.5 L 220.5 223 Z " /><path fill="rgb(251,246,231)" stroke="rgb(251,246,231)" stroke-width="1" opacity="1" d="M 257 223 Q 260 222 259 225 Q 256 226 257 223 Z " /><path fill="rgb(251,246,231)" stroke="rgb(251,246,231)" stroke-width="1" opacity="1" d="M 285.5 223 L 286 246.5 L 285 246.5 L 285.5 223 Z " /><path fill="rgb(251,246,231)" stroke="rgb(251,246,231)" stroke-width="1" opacity="1" d="M 336.5 223 L 337 227.5 L 336 227.5 L 336.5 223 Z " /><path fill="rgb(251,246,231)" stroke="rgb(251,246,231)" stroke-width="1" opacity="1" d="M 365.5 223 L 366 228.5 L 365 228.5 L 365.5 223 Z " /><path fill="rgb(251,246,231)" stroke="rgb(251,246,231)" stroke-width="1" opacity="1" d="M 429.5 223 L 432 223.5 L 429.5 224 L 429.5 223 Z " /><path fill="rgb(251,246,231)" stroke="rgb(251,246,231)" stroke-width="1" opacity="1" d="M 226.5 224 L 227 227.5 L 225 228.5 L 226.5 224 Z " /><path fill="rgb(251,246,231)" stroke="rgb(251,246,231)" stroke-width="1" opacity="1" d="M 228.5 224 L 229 227.5 L 228 227.5 L 228.5 224 Z " /><path fill="rgb(251,246,231)" stroke="rgb(251,246,231)" stroke-width="1" opacity="1" d="M 371.5 224 L 372 227.5 L 369.5 229 L 369.5 228 L 371 228 L 371.5 224 Z " /><path fill="rgb(251,246,231)" stroke="rgb(251,246,231)" stroke-width="1" opacity="1" d="M 373.5 224 L 374 227.5 L 373 227.5 L 373.5 224 Z " /><path fill="rgb(251,246,231)" stroke="rgb(251,246,231)" stroke-width="1" opacity="1" d="M 204.5 225 L 209 225.5 L 204.5 226 L 204.5 225 Z " /><path fill="rgb(251,246,231)" stroke="rgb(251,246,231)" stroke-width="1" opacity="1" d="M 234.5 226 L 235 228.5 L 234 228.5 L 234.5 226 Z " /><path fill="rgb(251,246,231)" stroke="rgb(251,246,231)" stroke-width="1" opacity="1" d="M 422.5 228 L 427 231.5 L 425.5 232 L 422.5 228 Z " /><path fill="rgb(251,246,231)" stroke="rgb(251,246,231)" stroke-width="1" opacity="1" d="M 169.5 229 L 168.5 231 L 169.5 229 Z " /><path fill="rgb(251,246,231)" stroke="rgb(251,246,231)" stroke-width="1" opacity="1" d="M 257 229 L 259 229.5 L 257 230.5 L 257 229 Z " /><path fill="rgb(251,246,231)" stroke="rgb(251,246,231)" stroke-width="1" opacity="1" d="M 143.5 230 L 144 232.5 L 142 233.5 L 143.5 230 Z " /><path fill="rgb(251,246,231)" stroke="rgb(251,246,231)" stroke-width="1" opacity="1" d="M 231.5 230 L 229.5 233 L 231.5 230 Z " /><path fill="rgb(251,246,231)" stroke="rgb(251,246,231)" stroke-width="1" opacity="1" d="M 376.5 230 L 374.5 233 L 376.5 230 Z " /><path fill="rgb(251,246,231)" stroke="rgb(251,246,231)" stroke-width="1" opacity="1" d="M 421.5 230 L 423.5 233 L 421.5 230 Z " /><path fill="rgb(251,246,231)" stroke="rgb(251,246,231)" stroke-width="1" opacity="1" d="M 232.5 232 L 231.5 234 L 232.5 232 Z " /><path fill="rgb(251,246,231)" stroke="rgb(251,246,231)" stroke-width="1" opacity="1" d="M 315.5 233 L 314.5 235 L 315.5 233 Z " /><path fill="rgb(251,246,231)" stroke="rgb(251,246,231)" stroke-width="1" opacity="1" d="M 334.5 233 L 335 241 L 345 241.5 L 334 242 L 334.5 233 Z " /><path fill="rgb(251,246,231)" stroke="rgb(251,246,231)" stroke-width="1" opacity="1" d="M 218.5 234 L 219 244.5 L 218 244.5 L 218.5 234 Z " /><path fill="rgb(251,246,231)" stroke="rgb(251,246,231)" stroke-width="1" opacity="1" d="M 363.5 234 L 364 244.5 L 363 244.5 L 363.5 234 Z " /><path fill="rgb(251,246,231)" stroke="rgb(251,246,231)" stroke-width="1" opacity="1" d="M 434.5 234 L 435.5 236 L 434.5 234 Z " /><path fill="rgb(251,246,231)" stroke="rgb(251,246,231)" stroke-width="1" opacity="1" d="M 336.5 235 L 337 239.5 L 336 239.5 L 336.5 235 Z " /><path fill="rgb(251,246,231)" stroke="rgb(251,246,231)" stroke-width="1" opacity="1" d="M 370.5 235 L 373 235.5 L 370.5 236 L 370.5 235 Z " /><path fill="rgb(251,246,231)" stroke="rgb(251,246,231)" stroke-width="1" opacity="1" d="M 220.5 236 L 221 245.5 L 220 245.5 L 220.5 236 Z " /><path fill="rgb(251,246,231)" stroke="rgb(251,246,231)" stroke-width="1" opacity="1" d="M 365.5 236 L 366 245.5 L 365 245.5 L 365.5 236 Z " /><path fill="rgb(251,246,231)" stroke="rgb(251,246,231)" stroke-width="1" opacity="1" d="M 204.5 237 L 209 237.5 L 204.5 238 L 204.5 237 Z " /><path fill="rgb(251,246,231)" stroke="rgb(251,246,231)" stroke-width="1" opacity="1" d="M 228.5 237 L 229.5 239 L 228.5 237 Z " /><path fill="rgb(251,246,231)" stroke="rgb(251,246,231)" stroke-width="1" opacity="1" d="M 224.5 238 L 225.5 240 L 224.5 238 Z " /><path fill="rgb(251,246,231)" stroke="rgb(251,246,231)" stroke-width="1" opacity="1" d="M 315.5 238 L 316 239.5 L 314 240.5 L 315.5 238 Z " /><path fill="rgb(251,246,231)" stroke="rgb(251,246,231)" stroke-width="1" opacity="1" d="M 428.5 238 L 433 239.5 L 429.5 240 L 428.5 238 Z " /><path fill="rgb(251,246,231)" stroke="rgb(251,246,231)" stroke-width="1" opacity="1" d="M 131.5 239 L 130.5 241 L 131.5 239 Z " /><path fill="rgb(251,246,231)" stroke="rgb(251,246,231)" stroke-width="1" opacity="1" d="M 208.5 239 L 205.5 243 L 208.5 239 Z " /><path fill="rgb(251,246,231)" stroke="rgb(251,246,231)" stroke-width="1" opacity="1" d="M 263.5 239 L 265 241.5 L 264 241.5 L 263.5 239 Z " /><path fill="rgb(251,246,231)" stroke="rgb(251,246,231)" stroke-width="1" opacity="1" d="M 426.5 239 L 430 241.5 L 428.5 242 L 426.5 239 Z " /><path fill="rgb(251,246,231)" stroke="rgb(251,246,231)" stroke-width="1" opacity="1" d="M 184.5 240 L 188.5 245 L 184.5 240 Z " /><path fill="rgb(251,246,231)" stroke="rgb(251,246,231)" stroke-width="1" opacity="1" d="M 439.5 240 L 438.5 242 L 439.5 240 Z " /><path fill="rgb(251,246,231)" stroke="rgb(251,246,231)" stroke-width="1" opacity="1" d="M 195.5 241 L 200 241.5 L 195.5 242 L 195.5 241 Z " /><path fill="rgb(251,246,231)" stroke="rgb(251,246,231)" stroke-width="1" opacity="1" d="M 209.5 241 L 207.5 244 L 209.5 241 Z " /><path fill="rgb(251,246,231)" stroke="rgb(251,246,231)" stroke-width="1" opacity="1" d="M 386.5 241 L 395.5 241 L 397 242.5 L 396.5 245 L 396 242 L 386.5 242 L 386.5 241 Z " /><path fill="rgb(251,246,231)" stroke="rgb(251,246,231)" stroke-width="1" opacity="1" d="M 189.5 242 L 190.5 244 L 189.5 242 Z " /><path fill="rgb(251,246,231)" stroke="rgb(251,246,231)" stroke-width="1" opacity="1" d="M 224.5 242 L 225.5 244 L 224.5 242 Z " /><path fill="rgb(251,246,231)" stroke="rgb(251,246,231)" stroke-width="1" opacity="1" d="M 231.5 242 L 232.5 244 L 231.5 242 Z " /><path fill="rgb(251,246,231)" stroke="rgb(251,246,231)" stroke-width="1" opacity="1" d="M 440.5 242 L 437.5 246 L 440.5 242 Z " /><path fill="rgb(251,246,231)" stroke="rgb(251,246,231)" stroke-width="1" opacity="1" d="M 124.5 243 L 123.5 245 L 124.5 243 Z " /><path fill="rgb(251,246,231)" stroke="rgb(251,246,231)" stroke-width="1" opacity="1" d="M 163.5 244 L 164 245.5 L 162 246.5 L 163.5 244 Z " /><path fill="rgb(251,246,231)" stroke="rgb(251,246,231)" stroke-width="1" opacity="1" d="M 423.5 244 L 424.5 246 L 423.5 244 Z " /><path fill="rgb(251,246,231)" stroke="rgb(251,246,231)" stroke-width="1" opacity="1" d="M 226.5 245 L 227.5 247 L 226.5 245 Z " /><path fill="rgb(251,246,231)" stroke="rgb(251,246,231)" stroke-width="1" opacity="1" d="M 117.5 247 L 116.5 249 L 117.5 247 Z " /><path fill="rgb(251,246,231)" stroke="rgb(251,246,231)" stroke-width="1" opacity="1" d="M 97.5 249 L 98.5 251 L 97.5 249 Z " /><path fill="rgb(251,246,231)" stroke="rgb(251,246,231)" stroke-width="1" opacity="1" d="M 110.5 251 L 109.5 253 L 110.5 251 Z " /><path fill="rgb(251,246,231)" stroke="rgb(251,246,231)" stroke-width="1" opacity="1" d="M 100.5 254 L 101.5 256 L 100.5 254 Z " /><path fill="rgb(255,255,255)" stroke="rgb(255,255,255)" stroke-width="1" opacity="1" d="M 0 0 L 500 0 L 500 500 L 0 500 L 0 0 Z M 52 122 L 50 124 L 45 144 L 49 145 L 54 128 L 54 122 L 52 122 Z M 26 125 L 24 127 L 34 145 Q 37 150 39 145 L 29 127 L 26 125 Z M 72 138 L 54 148 L 56 152 L 75 141 Q 76 136 72 138 Z M 9 146 L 9 150 L 31 155 L 32 153 L 31 151 L 9 146 Z M 44 150 L 40 152 L 36 157 L 36 165 L 60 205 L 60 206 L 51 203 Q 44 203 41 206 L 39 211 L 40 219 L 48 224 L 95 244 L 102 256 L 110 253 L 144 233 L 137 220 L 134 197 L 114 163 L 108 159 Q 100 160 97 165 L 91 162 L 84 164 L 81 168 L 74 165 L 67 167 L 64 171 L 54 155 Q 52 149 44 150 Z M 31 162 L 12 174 L 14 176 L 33 166 Q 35 161 31 162 Z M 165 216 L 155 245 L 156 247 L 163 247 L 165 243 L 166 241 L 174 241 L 175 245 L 176 247 L 184 247 L 174 218 L 173 216 L 165 216 Z M 194 216 L 189 218 L 182 227 Q 180 236 184 241 Q 187 245 194 247 Q 203 248 208 244 L 211 239 L 212 239 L 212 247 L 220 247 L 221 246 L 222 237 L 226 246 L 228 247 L 252 247 L 253 243 Q 255 239 262 241 L 264 247 L 273 247 L 262 218 L 262 216 L 254 216 L 245 243 L 244 243 L 244 217 L 244 216 L 236 216 L 236 245 L 230 236 Q 229 233 232 234 L 235 229 L 234 222 L 227 216 L 212 216 L 212 225 L 209 221 Q 205 215 194 216 Z M 270 216 L 270 223 L 278 223 L 278 224 L 278 247 L 286 247 L 286 223 L 293 223 L 293 224 L 293 247 L 301 247 L 302 222 L 310 246 L 312 247 L 319 247 L 328 223 L 328 246 L 330 247 L 347 247 L 347 240 L 337 240 L 337 235 L 346 235 L 346 228 L 337 228 L 337 223 L 347 223 L 347 217 L 347 216 L 321 216 L 315 234 L 309 218 L 308 216 L 270 216 Z M 357 216 L 357 247 L 358 247 L 365 247 L 366 246 L 366 236 Q 374 237 377 234 L 379 230 L 380 230 L 380 247 L 398 247 L 398 240 L 388 240 L 388 235 L 397 235 L 397 228 L 388 228 L 388 223 L 405 223 L 405 247 L 413 247 L 413 224 L 414 223 L 420 223 L 421 231 Q 425 235 433 236 L 434 239 Q 429 240 428 238 L 428 236 L 420 236 L 421 243 L 427 247 L 438 246 Q 444 244 442 234 Q 438 228 430 227 L 428 224 L 433 224 L 434 227 L 442 227 L 441 221 L 435 216 Q 424 214 422 220 L 421 218 L 420 216 L 380 216 L 380 223 L 379 222 L 372 216 L 357 216 Z " /><path fill="rgb(255,255,255)" stroke="rgb(255,255,255)" stroke-width="1" opacity="1" d="M 167 218 L 172 218 L 172 220.5 L 181 245 L 177 245 L 177 243.5 L 174.5 239 L 163.5 239 L 163 240.5 L 160.5 245 Q 156.8 246.3 158 242.5 L 167 218 Z M 170 223 L 165 234 L 166 236 L 174 236 L 170 223 Z " /><path fill="rgb(255,255,255)" stroke="rgb(255,255,255)" stroke-width="1" opacity="1" d="M 194.5 218 Q 205.4 217.6 209 224.5 L 204.5 225 Q 202.6 219.9 194.5 221 L 189 225.5 Q 186.7 228.7 188 235.5 L 192.5 241 L 199.5 242 L 204.5 238 L 208.5 238 L 204.5 243 Q 201.2 245.7 194.5 245 L 186 239.5 Q 182.7 235.8 184 227.5 L 188.5 221 L 194.5 218 Z " /><path fill="rgb(255,255,255)" stroke="rgb(255,255,255)" stroke-width="1" opacity="1" d="M 215 218 L 227.5 219 L 232 222.5 L 233 226.5 L 228.5 233 Q 225.9 232.2 227 235.5 L 233 244.5 L 228 245 L 223 234 L 218 234 L 218 244.5 L 215 245 L 215 218 Z M 218 221 L 218 231 Q 225 232 228 230 L 229 228 L 228 222 Q 225 220 218 221 Z " /><path fill="rgb(255,255,255)" stroke="rgb(255,255,255)" stroke-width="1" opacity="1" d="M 238 218 L 242 218.5 L 242 245 L 238 244.5 L 238 218 Z " /><path fill="rgb(255,255,255)" stroke="rgb(255,255,255)" stroke-width="1" opacity="1" d="M 256.5 218 Q 260.3 217.3 261 219.5 L 270 244.5 L 266 245 L 263.5 239 L 252.5 239 L 252 240.5 L 250 245 L 246 244.5 L 256.5 218 Z M 257 223 L 254 235 L 254 236 L 263 236 L 259 226 Q 260 222 257 223 Z " /><path fill="rgb(255,255,255)" stroke="rgb(255,255,255)" stroke-width="1" opacity="1" d="M 273 218 L 290.5 218 L 291 221 Q 284.9 219.3 283 222.5 L 283 244.5 L 280 245 L 280 221.5 L 279.5 221 L 273 221 L 273 218 Z " /><path fill="rgb(255,255,255)" stroke="rgb(255,255,255)" stroke-width="1" opacity="1" d="M 295 218 L 299 218.5 L 299 245 L 295 244.5 L 295 218 Z " /><path fill="rgb(255,255,255)" stroke="rgb(255,255,255)" stroke-width="1" opacity="1" d="M 303 218 L 307 219.5 L 314.5 241 L 323 218 L 327 218.5 L 317 245 L 312 245 L 312 242.5 L 303 218 Z " /><path fill="rgb(255,255,255)" stroke="rgb(255,255,255)" stroke-width="1" opacity="1" d="M 331 218 L 344.5 218 L 345 221 L 334 221 L 334 230 L 343.5 230 L 344 233 L 334 233 L 334 242 L 344.5 242 L 345 245 L 331 245 L 331 218 Z " /><path fill="rgb(255,255,255)" stroke="rgb(255,255,255)" stroke-width="1" opacity="1" d="M 360 218 L 372.5 219 L 377 222.5 L 378 226.5 L 373.5 233 L 363 234 L 363 244.5 L 360 245 L 360 218 Z M 363 221 L 363 231 Q 370 232 373 230 L 374 228 L 373 222 Q 370 220 363 221 Z " /><path fill="rgb(255,255,255)" stroke="rgb(255,255,255)" stroke-width="1" opacity="1" d="M 382 218 L 395.5 218 L 396 221 L 386 221 L 386 230 L 395 230 L 395 233 L 386 233 L 386 242 L 395.5 242 L 396 245 L 382 245 L 382 218 Z " /><path fill="rgb(255,255,255)" stroke="rgb(255,255,255)" stroke-width="1" opacity="1" d="M 400 218 L 417.5 218 L 418 221 L 411 221 L 411 244.5 L 407 245 L 407 221.5 L 406.5 221 L 400 221 L 400 218 Z " /><path fill="rgb(255,255,255)" stroke="rgb(255,255,255)" stroke-width="1" opacity="1" d="M 428.5 218 Q 437.1 216.9 439 222.5 L 440 224.5 L 436.5 225 Q 435.5 220 428.5 221 Q 424.8 222.5 426 228 L 433.5 230 L 439 233.5 L 440 239.5 L 438 243 Q 435.4 245.7 428.5 245 L 423 241.5 L 422 238 L 426 238 L 426 239.5 Q 427.3 243.3 433.5 242 Q 437 241 436 235.5 L 425.5 231 L 422 227.5 Q 421.1 220.6 425.5 219 L 428.5 218 Z " /><path fill="rgb(255,255,255)" stroke="rgb(255,255,255)" stroke-width="1" opacity="1" d="M 197.5 223 L 203 226.5 L 203.5 228 L 212 228 L 212 235 L 203.5 235 L 203 236.5 L 197.5 240 L 193.5 239 L 191 236.5 L 190 228.5 L 193.5 224 L 197.5 223 Z " /><path fill="rgb(255,255,255)" stroke="rgb(255,255,255)" stroke-width="1" opacity="1" d="M 221 223 L 226 224 Q 227 227.8 224.5 229 L 221 229 L 221 223 Z " /><path fill="rgb(255,255,255)" stroke="rgb(255,255,255)" stroke-width="1" opacity="1" d="M 366 223 L 371 224 L 371 228 L 369.5 228 L 366 229 L 366 223 Z " /><path fill="rgb(255,255,255)" stroke="rgb(255,255,255)" stroke-width="1" opacity="1" d="M 169.5 230 L 171 234 Q 166.9 235.7 168 231.5 L 169.5 230 Z " /><path fill="rgb(255,255,255)" stroke="rgb(255,255,255)" stroke-width="1" opacity="1" d="M 258.5 230 L 260 233.5 L 256.5 234 L 257 232.5 L 258.5 230 Z " /><path fill="rgb(122,154,72)" stroke="rgb(122,154,72)" stroke-width="1" opacity="1" d="M 51 122 Q 55.5 120.3 54 125.5 L 50 140.5 L 47.5 145 Q 44.1 145.9 46 140.5 L 51 122 Z " /><path fill="rgb(122,154,72)" stroke="rgb(122,154,72)" stroke-width="1" opacity="1" d="M 26.5 125 L 36 139.5 L 38 146 Q 34.2 147.5 35 144.5 L 25 128.5 L 25 126.5 L 26.5 125 Z " /><path fill="rgb(122,154,72)" stroke="rgb(122,154,72)" stroke-width="1" opacity="1" d="M 72.5 138 L 75 139.5 Q 75.8 141.8 73.5 141 L 59.5 150 L 55.5 151 Q 52.5 149.5 55.5 148 L 72.5 138 Z " /><path fill="rgb(122,154,72)" stroke="rgb(122,154,72)" stroke-width="1" opacity="1" d="M 9 146 L 29.5 151 L 31 152.5 Q 32.3 156.3 28.5 155 L 24.5 153 L 13.5 151 L 9 148.5 L 9 146 Z " /><path fill="rgb(122,154,72)" stroke="rgb(122,154,72)" stroke-width="1" opacity="1" d="M 45.5 150 L 49.5 151 L 55 156.5 L 63.5 172 L 67.5 167 L 76.5 166 L 81 169 L 84.5 164 L 92.5 163 L 96.5 166 L 99 162 Q 101.9 159.1 109.5 160 L 115 164.5 L 134 197.5 L 136 218.5 L 143 229.5 L 143 232.5 L 102.5 256 L 93.5 243 L 48.5 224 L 41 219.5 L 39 211.5 L 43.5 205 L 52.5 204 L 60.5 206 L 59 203.5 L 37 165.5 L 36 157.5 L 40.5 152 L 45.5 150 Z M 44 154 L 41 155 L 39 160 L 42 168 L 66 208 L 66 211 L 51 207 L 46 208 Q 42 210 43 217 L 46 219 L 95 240 L 101 238 L 133 219 L 131 200 L 113 168 L 108 163 L 103 164 L 100 168 L 100 172 L 106 182 L 104 183 L 95 169 Q 93 165 88 166 L 83 172 L 92 190 L 90 191 L 78 172 L 75 169 L 70 170 L 66 176 L 78 198 L 76 199 L 51 157 Q 49 153 44 154 Z " /><path fill="rgb(122,154,72)" stroke="rgb(122,154,72)" stroke-width="1" opacity="1" d="M 30.5 162 L 33 163.5 L 31.5 166 L 14.5 176 L 12 175 L 13.5 172 L 30.5 162 Z " /><path fill="rgb(122,154,72)" stroke="rgb(122,154,72)" stroke-width="1" opacity="1" d="M 166.5 216 Q 173.5 214.5 173 217.5 L 182 240.5 L 183 247 Q 176.9 248.7 175 245.5 L 174 241 L 165.5 241 L 164 242.5 L 161.5 247 Q 154.5 248.5 155 245.5 L 166.5 216 Z M 168 218 L 165 222 L 157 245 L 162 245 L 163 241 L 165 239 L 175 239 L 176 244 Q 177 246 181 245 L 172 220 Q 173 216 168 218 Z " /><path fill="rgb(122,154,72)" stroke="rgb(122,154,72)" stroke-width="1" opacity="1" d="M 195.5 216 Q 206.4 215.6 210 222.5 L 212 226.5 L 203.5 227 L 202 224 L 195.5 223 L 190 227.5 Q 188 237 193.5 239 L 199.5 240 Q 201.5 234 211.5 236 L 211 237.5 L 205.5 245 L 199.5 247 L 194.5 247 Q 187.3 245.2 184 239.5 Q 180.7 235.8 182 227.5 L 186.5 220 L 195.5 216 Z M 193 218 L 191 219 Q 184 222 183 231 L 185 239 Q 187 244 194 245 Q 202 246 206 243 Q 210 242 209 237 L 204 237 L 204 239 L 201 241 L 192 240 L 188 235 Q 187 228 190 225 L 194 222 L 203 223 L 204 226 L 209 226 L 209 224 Q 205 216 193 218 Z " /><path fill="rgb(122,154,72)" stroke="rgb(122,154,72)" stroke-width="1" opacity="1" d="M 213 216 Q 226.8 213.9 233 220.5 L 235 225.5 L 233 231.5 L 230.5 234 L 229 234.5 L 235.5 245 L 236 217.5 L 237.5 216 Q 242.8 214.8 244 217.5 L 244.5 244 L 253 219.5 L 255.5 216 Q 260.8 214.8 262 217.5 L 272 247 L 265.5 247 L 264 245.5 L 263 241 L 253.5 241 L 253 243.5 L 250.5 247 L 237.5 247 L 236.5 246 Q 234.8 248.8 228.5 247 L 220.5 236 L 220 247 L 213.5 247 L 213 246.5 L 213 216 Z M 214 218 L 214 245 L 219 245 L 219 235 L 222 234 L 227 244 Q 228 246 233 245 L 227 235 L 230 233 L 233 229 L 232 222 L 227 218 L 214 218 Z M 238 218 L 238 245 L 242 245 L 242 219 L 238 218 Z M 255 218 L 246 244 L 246 245 L 251 245 L 252 241 L 254 239 L 263 239 L 265 243 L 265 245 L 270 245 L 261 220 L 261 218 L 255 218 Z " /><path fill="rgb(122,154,72)" stroke="rgb(122,154,72)" stroke-width="1" opacity="1" d="M 271 216 L 291.5 216 L 293.5 217 L 294.5 216 L 308 216 L 314.5 235 L 322.5 216 L 345.5 216 L 347 217.5 L 347 223 L 336 223 L 336 228 L 346 228 L 346 233.5 L 344.5 235 L 336 235 L 336 240 L 347 240 L 347 245.5 L 345.5 247 L 329 247 L 328.5 220 L 317.5 247 Q 310.5 248.5 311 245.5 L 301.5 221 L 301 245.5 L 299.5 247 Q 294.3 248.3 293 245.5 L 293 223 L 285 223 L 285 246.5 L 284.5 247 L 278 247 L 278 223.5 L 277.5 223 L 271 223 L 271 216 Z M 272 218 L 274 222 Q 279 221 279 223 L 279 245 L 284 245 L 284 222 L 291 222 L 291 218 L 272 218 Z M 295 218 L 295 245 L 299 245 L 299 219 L 295 218 Z M 303 218 L 312 244 Q 311 247 317 245 L 319 242 L 327 220 Q 328 216 324 218 L 315 240 L 307 220 Q 308 216 303 218 Z M 330 218 L 330 245 L 345 245 L 345 241 L 335 241 L 335 233 L 344 233 L 344 230 L 335 230 L 335 222 L 345 222 L 345 218 L 330 218 Z " /><path fill="rgb(122,154,72)" stroke="rgb(122,154,72)" stroke-width="1" opacity="1" d="M 358 216 Q 371.8 213.9 378 220.5 L 379.5 225 L 380 217.5 L 381.5 216 L 397.5 216 L 398.5 217 L 399.5 216 L 420 216 L 420.5 222 L 423.5 218 Q 426.8 215.3 433.5 216 L 441 221.5 L 442 225.5 Q 440.1 228.8 434 227 L 431.5 223 L 428 224.5 Q 426.9 227.8 429.5 227 L 436.5 229 L 441 232.5 L 442 239.5 L 436.5 246 L 428.5 247 L 422 244 L 420 236 L 428 236 L 428 238.5 Q 428.8 240.8 432.5 240 L 434 236 L 424.5 233 L 421 229.5 L 420 223 L 413 223 L 413 246.5 Q 412.8 247.8 406.5 247 L 405 245.5 L 405 223 L 388.5 223 L 388 228 L 397 228 L 397 235 L 388 235 L 388 240 L 398 240 L 398 247 L 381.5 247 L 380 245.5 L 379.5 227 L 375.5 234 L 365 236 L 365 247 L 358 247 L 358 216 Z M 359 218 L 359 245 L 364 245 L 364 234 L 375 233 L 378 229 L 377 222 L 372 218 L 359 218 Z M 382 218 L 382 245 L 397 245 L 397 243 L 396 241 L 386 241 L 386 233 L 395 233 L 395 230 L 388 230 Q 384 228 386 222 L 396 222 L 397 221 L 397 218 L 382 218 Z M 400 218 L 400 222 L 407 222 L 407 223 L 407 245 L 411 245 L 411 222 L 418 222 L 419 221 L 419 218 L 400 218 Z M 427 218 L 423 220 Q 421 222 422 229 L 426 232 Q 433 232 436 237 L 435 241 L 432 242 L 426 238 Q 421 236 422 241 L 428 245 L 437 244 Q 442 243 440 235 L 437 231 L 428 228 Q 425 227 426 224 L 431 221 L 435 224 L 435 225 L 440 225 L 439 222 Q 436 216 427 218 Z " /><path fill="rgb(122,154,72)" stroke="rgb(122,154,72)" stroke-width="1" opacity="1" d="M 219 222 L 226.5 222 L 228 223.5 Q 229.3 228.8 226.5 230 L 219 231 L 219 222 Z M 220 223 L 220 229 L 226 229 Q 228 228 227 224 L 220 223 Z " /><path fill="rgb(122,154,72)" stroke="rgb(122,154,72)" stroke-width="1" opacity="1" d="M 364 222 L 371.5 222 L 373 223.5 Q 374.3 228.8 371.5 230 L 364 230 L 364 222 Z M 365 223 L 365 229 L 371 229 Q 373 228 372 224 L 365 223 Z " /><path fill="rgb(122,154,72)" stroke="rgb(122,154,72)" stroke-width="1" opacity="1" d="M 169.5 224 L 173 232.5 L 173 236 L 165.5 236 L 165 234.5 L 169.5 224 Z M 170 229 L 167 234 L 171 234 L 170 229 Z " /><path fill="rgb(122,154,72)" stroke="rgb(122,154,72)" stroke-width="1" opacity="1" d="M 257 225 Q 259.7 223.9 259 226.5 L 262 236 L 254 236 L 254 233.5 L 257 225 Z M 257 229 L 256 233 L 256 234 L 260 234 L 259 232 Q 260 228 257 229 Z " /></svg>